<mxfile host="app.diagrams.net" agent="Mozilla/5.0 (X11; Linux x86_64; rv:128.0) Gecko/20100101 Firefox/128.0" version="26.0.10">
  <diagram name="Page-1" id="leC2-51tnYWsd6YQXWTi">
    <mxGraphModel dx="2284" dy="822" grid="1" gridSize="10" guides="1" tooltips="1" connect="1" arrows="1" fold="1" page="1" pageScale="1" pageWidth="850" pageHeight="1100" math="0" shadow="0">
      <root>
        <mxCell id="0" />
        <mxCell id="1" parent="0" />
        <mxCell id="j_wk7pwz5JaZ6GtCQzZr-73" value="" style="rounded=1;whiteSpace=wrap;html=1;" parent="1" vertex="1">
          <mxGeometry x="-480" y="135.93" width="70" height="46.44" as="geometry" />
        </mxCell>
        <mxCell id="j_wk7pwz5JaZ6GtCQzZr-70" value="" style="rounded=1;whiteSpace=wrap;html=1;fillColor=#FFFFFF;strokeColor=#b85450;" parent="1" vertex="1">
          <mxGeometry x="-490" y="130" width="70" height="42.37" as="geometry" />
        </mxCell>
        <mxCell id="j_wk7pwz5JaZ6GtCQzZr-1" value="&lt;b&gt;&lt;font face=&quot;Times New Roman&quot; style=&quot;font-size: 26px;&quot;&gt;Scheduler&lt;/font&gt;&lt;/b&gt;" style="rounded=1;whiteSpace=wrap;html=1;" parent="1" vertex="1">
          <mxGeometry x="-60" y="262.37" width="120" height="40" as="geometry" />
        </mxCell>
        <mxCell id="j_wk7pwz5JaZ6GtCQzZr-4" value="&lt;font style=&quot;font-size: 16px;&quot; face=&quot;Times New Roman&quot;&gt;R&lt;/font&gt;" style="whiteSpace=wrap;html=1;aspect=fixed;fillColor=#d5e8d4;strokeColor=#82b366;" parent="1" vertex="1">
          <mxGeometry x="170" y="267.17" width="30" height="30" as="geometry" />
        </mxCell>
        <mxCell id="j_wk7pwz5JaZ6GtCQzZr-61" value="&lt;font style=&quot;font-size: 22px;&quot; face=&quot;Times New Roman&quot;&gt;b&lt;sub&gt;1&lt;/sub&gt;&lt;/font&gt;" style="rounded=1;whiteSpace=wrap;html=1;fillColor=none;strokeColor=#82b366;" parent="1" vertex="1">
          <mxGeometry x="-320" y="120" width="40" height="27.63" as="geometry" />
        </mxCell>
        <mxCell id="j_wk7pwz5JaZ6GtCQzZr-62" value="&lt;font style=&quot;font-size: 22px;&quot; face=&quot;Times New Roman&quot;&gt;b&lt;sub&gt;2&lt;/sub&gt;&lt;/font&gt;" style="rounded=1;whiteSpace=wrap;html=1;fillColor=none;strokeColor=#82b366;" parent="1" vertex="1">
          <mxGeometry x="-320" y="154.74" width="40" height="25.26" as="geometry" />
        </mxCell>
        <mxCell id="j_wk7pwz5JaZ6GtCQzZr-63" value="&lt;font style=&quot;font-size: 22px;&quot; face=&quot;Times New Roman&quot;&gt;b&lt;sub&gt;3&lt;/sub&gt;&lt;/font&gt;" style="rounded=1;whiteSpace=wrap;html=1;fillColor=none;strokeColor=#82b366;" parent="1" vertex="1">
          <mxGeometry x="-320" y="182.37" width="40" height="42.89" as="geometry" />
        </mxCell>
        <mxCell id="j_wk7pwz5JaZ6GtCQzZr-64" value="&lt;font style=&quot;font-size: 22px;&quot; face=&quot;Times New Roman&quot;&gt;b&lt;sub&gt;4&lt;/sub&gt;&lt;/font&gt;" style="rounded=1;whiteSpace=wrap;html=1;fillColor=none;strokeColor=#82b366;" parent="1" vertex="1">
          <mxGeometry x="-320" y="231.85000000000002" width="40" height="30.52" as="geometry" />
        </mxCell>
        <mxCell id="j_wk7pwz5JaZ6GtCQzZr-65" value="&lt;font style=&quot;font-size: 22px;&quot; face=&quot;Times New Roman&quot;&gt;b&lt;sub&gt;5&lt;/sub&gt;&lt;/font&gt;" style="rounded=1;whiteSpace=wrap;html=1;fillColor=none;strokeColor=#b85450;" parent="1" vertex="1">
          <mxGeometry x="-270" y="120" width="50" height="27.63" as="geometry" />
        </mxCell>
        <mxCell id="j_wk7pwz5JaZ6GtCQzZr-66" value="&lt;font style=&quot;font-size: 22px;&quot; face=&quot;Times New Roman&quot;&gt;b&lt;sub&gt;6&lt;/sub&gt;&lt;/font&gt;" style="rounded=1;whiteSpace=wrap;html=1;fillColor=none;strokeColor=#b85450;" parent="1" vertex="1">
          <mxGeometry x="-270" y="154.74" width="50" height="37.63" as="geometry" />
        </mxCell>
        <mxCell id="j_wk7pwz5JaZ6GtCQzZr-67" value="&lt;font style=&quot;font-size: 22px;&quot; face=&quot;Times New Roman&quot;&gt;b&lt;sub&gt;7&lt;/sub&gt;&lt;/font&gt;" style="rounded=1;whiteSpace=wrap;html=1;fillColor=none;strokeColor=#b85450;" parent="1" vertex="1">
          <mxGeometry x="-270" y="194.74" width="50" height="37.63" as="geometry" />
        </mxCell>
        <mxCell id="j_wk7pwz5JaZ6GtCQzZr-68" value="&lt;font style=&quot;font-size: 22px;&quot; face=&quot;Times New Roman&quot;&gt;b&lt;sub&gt;8&lt;/sub&gt;&lt;/font&gt;" style="rounded=1;whiteSpace=wrap;html=1;fillColor=none;strokeColor=#b85450;" parent="1" vertex="1">
          <mxGeometry x="-270" y="240" width="50" height="30" as="geometry" />
        </mxCell>
        <mxCell id="j_wk7pwz5JaZ6GtCQzZr-69" value="&lt;font face=&quot;Times New Roman&quot; style=&quot;font-size: 24px;&quot;&gt;LLMs&lt;/font&gt;" style="rounded=1;whiteSpace=wrap;html=1;fillColor=#FFFFFF;strokeColor=#82b366;" parent="1" vertex="1">
          <mxGeometry x="-500" y="120" width="70" height="42.37" as="geometry" />
        </mxCell>
        <mxCell id="j_wk7pwz5JaZ6GtCQzZr-78" style="edgeStyle=orthogonalEdgeStyle;rounded=0;orthogonalLoop=1;jettySize=auto;html=1;exitX=1;exitY=0.5;exitDx=0;exitDy=0;entryX=0;entryY=0.644;entryDx=0;entryDy=0;entryPerimeter=0;" parent="1" source="j_wk7pwz5JaZ6GtCQzZr-73" target="j_wk7pwz5JaZ6GtCQzZr-63" edge="1">
          <mxGeometry relative="1" as="geometry" />
        </mxCell>
        <mxCell id="j_wk7pwz5JaZ6GtCQzZr-79" value="&lt;div&gt;&lt;font style=&quot;font-size: 13px;&quot; face=&quot;Times New Roman&quot;&gt;Partitioned into&lt;/font&gt;&lt;/div&gt;&lt;div&gt;&lt;font style=&quot;font-size: 13px;&quot; face=&quot;Times New Roman&quot;&gt;Blocks&lt;br&gt;&lt;/font&gt;&lt;/div&gt;" style="edgeLabel;html=1;align=center;verticalAlign=middle;resizable=0;points=[];" parent="j_wk7pwz5JaZ6GtCQzZr-78" vertex="1" connectable="0">
          <mxGeometry x="-0.0109" y="-2" relative="1" as="geometry">
            <mxPoint as="offset" />
          </mxGeometry>
        </mxCell>
        <mxCell id="j_wk7pwz5JaZ6GtCQzZr-80" value="&lt;font face=&quot;Times New Roman&quot;&gt;Stitch 1&lt;/font&gt;" style="shape=trapezoid;perimeter=trapezoidPerimeter;whiteSpace=wrap;html=1;fixedSize=1;fillColor=none;strokeColor=#9673a6;size=5;" parent="1" vertex="1">
          <mxGeometry x="-460" y="202.37" width="65" height="20" as="geometry" />
        </mxCell>
        <mxCell id="j_wk7pwz5JaZ6GtCQzZr-81" value="&lt;font face=&quot;Times New Roman&quot;&gt;Stitch 2&lt;/font&gt;" style="shape=trapezoid;perimeter=trapezoidPerimeter;whiteSpace=wrap;html=1;fixedSize=1;fillColor=none;strokeColor=#9673a6;size=5;" parent="1" vertex="1">
          <mxGeometry x="-445" y="231.85" width="65" height="20" as="geometry" />
        </mxCell>
        <mxCell id="j_wk7pwz5JaZ6GtCQzZr-82" value="&lt;font face=&quot;Times New Roman&quot;&gt;...&lt;/font&gt;" style="shape=trapezoid;perimeter=trapezoidPerimeter;whiteSpace=wrap;html=1;fixedSize=1;fillColor=none;strokeColor=#9673a6;size=5;" parent="1" vertex="1">
          <mxGeometry x="-417" y="262.37" width="37" height="20" as="geometry" />
        </mxCell>
        <mxCell id="j_wk7pwz5JaZ6GtCQzZr-83" value="&lt;font face=&quot;Times New Roman&quot;&gt;...&lt;/font&gt;" style="rounded=1;whiteSpace=wrap;html=1;fillColor=none;strokeColor=#d79b00;" parent="1" vertex="1">
          <mxGeometry x="-320" y="268.1" width="40" height="21.9" as="geometry" />
        </mxCell>
        <mxCell id="j_wk7pwz5JaZ6GtCQzZr-84" value="&lt;font face=&quot;Times New Roman&quot; style=&quot;font-size: 13px;&quot;&gt;&lt;font style=&quot;font-size: 14px;&quot;&gt;Stitching Layers&lt;/font&gt;&lt;br&gt;&lt;/font&gt;" style="text;html=1;align=center;verticalAlign=middle;whiteSpace=wrap;rounded=0;" parent="1" vertex="1">
          <mxGeometry x="-490" y="257.37" width="60" height="30" as="geometry" />
        </mxCell>
        <mxCell id="j_wk7pwz5JaZ6GtCQzZr-89" style="edgeStyle=orthogonalEdgeStyle;rounded=0;orthogonalLoop=1;jettySize=auto;html=1;" parent="1" target="j_wk7pwz5JaZ6GtCQzZr-1" edge="1">
          <mxGeometry relative="1" as="geometry">
            <mxPoint x="100" y="282.37" as="sourcePoint" />
            <Array as="points">
              <mxPoint x="80" y="282.37" />
              <mxPoint x="80" y="282.37" />
            </Array>
          </mxGeometry>
        </mxCell>
        <mxCell id="j_wk7pwz5JaZ6GtCQzZr-85" value="&lt;font style=&quot;font-size: 16px;&quot; face=&quot;Times New Roman&quot;&gt;R&lt;/font&gt;" style="whiteSpace=wrap;html=1;aspect=fixed;fillColor=#d5e8d4;strokeColor=#82b366;" parent="1" vertex="1">
          <mxGeometry x="140" y="267.17" width="30" height="30" as="geometry" />
        </mxCell>
        <mxCell id="j_wk7pwz5JaZ6GtCQzZr-87" value="&lt;font style=&quot;font-size: 16px;&quot; face=&quot;Times New Roman&quot;&gt;R&lt;/font&gt;" style="rounded=0;whiteSpace=wrap;html=1;fillColor=#ffe6cc;strokeColor=#d79b00;" parent="1" vertex="1">
          <mxGeometry x="200" y="267.17" width="50" height="30" as="geometry" />
        </mxCell>
        <mxCell id="j_wk7pwz5JaZ6GtCQzZr-52" value="" style="endArrow=none;html=1;rounded=0;" parent="1" edge="1">
          <mxGeometry width="50" height="50" relative="1" as="geometry">
            <mxPoint x="130" y="297.17" as="sourcePoint" />
            <mxPoint x="260" y="297.17" as="targetPoint" />
          </mxGeometry>
        </mxCell>
        <mxCell id="j_wk7pwz5JaZ6GtCQzZr-88" value="" style="endArrow=none;html=1;rounded=0;" parent="1" edge="1">
          <mxGeometry width="50" height="50" relative="1" as="geometry">
            <mxPoint x="130" y="267.17" as="sourcePoint" />
            <mxPoint x="260" y="267.17" as="targetPoint" />
          </mxGeometry>
        </mxCell>
        <mxCell id="j_wk7pwz5JaZ6GtCQzZr-128" style="edgeStyle=none;rounded=0;orthogonalLoop=1;jettySize=auto;html=1;exitX=1.002;exitY=0.156;exitDx=0;exitDy=0;entryX=0;entryY=0.5;entryDx=0;entryDy=0;exitPerimeter=0;" parent="1" source="j_wk7pwz5JaZ6GtCQzZr-90" target="j_wk7pwz5JaZ6GtCQzZr-101" edge="1">
          <mxGeometry relative="1" as="geometry" />
        </mxCell>
        <mxCell id="j_wk7pwz5JaZ6GtCQzZr-139" style="edgeStyle=none;rounded=0;orthogonalLoop=1;jettySize=auto;html=1;exitX=1;exitY=0.5;exitDx=0;exitDy=0;dashed=1;" parent="1" edge="1">
          <mxGeometry relative="1" as="geometry">
            <mxPoint x="-120" y="214.12" as="targetPoint" />
            <mxPoint x="-210" y="214.12" as="sourcePoint" />
          </mxGeometry>
        </mxCell>
        <mxCell id="j_wk7pwz5JaZ6GtCQzZr-90" value="" style="rounded=0;whiteSpace=wrap;html=1;fillColor=none;fontColor=#333333;strokeColor=#666666;dashed=1;" parent="1" vertex="1">
          <mxGeometry x="-510" y="108.81000000000003" width="300" height="190" as="geometry" />
        </mxCell>
        <mxCell id="j_wk7pwz5JaZ6GtCQzZr-92" value="&lt;font style=&quot;font-size: 17px;&quot; face=&quot;Times New Roman&quot;&gt;Model Repository&lt;/font&gt;" style="text;html=1;align=center;verticalAlign=middle;whiteSpace=wrap;rounded=0;" parent="1" vertex="1">
          <mxGeometry x="-510" y="80" width="130" height="30" as="geometry" />
        </mxCell>
        <mxCell id="j_wk7pwz5JaZ6GtCQzZr-100" value="&lt;font style=&quot;font-size: 16px;&quot; face=&quot;Times New Roman&quot;&gt;R&lt;/font&gt;" style="whiteSpace=wrap;html=1;aspect=fixed;fillColor=#d5e8d4;strokeColor=#82b366;" parent="1" vertex="1">
          <mxGeometry x="90" y="267.17" width="30" height="30" as="geometry" />
        </mxCell>
        <mxCell id="j_wk7pwz5JaZ6GtCQzZr-101" value="&lt;font style=&quot;font-size: 16px;&quot; face=&quot;Times New Roman&quot;&gt;R&lt;/font&gt;" style="whiteSpace=wrap;html=1;aspect=fixed;fillColor=#d5e8d4;strokeColor=#82b366;" parent="1" vertex="1">
          <mxGeometry x="-170" y="124.48000000000003" width="30" height="30" as="geometry" />
        </mxCell>
        <mxCell id="j_wk7pwz5JaZ6GtCQzZr-131" style="edgeStyle=none;rounded=0;orthogonalLoop=1;jettySize=auto;html=1;" parent="1" edge="1">
          <mxGeometry relative="1" as="geometry">
            <mxPoint x="-70" y="140" as="sourcePoint" />
            <mxPoint x="-50" y="140" as="targetPoint" />
            <Array as="points">
              <mxPoint x="-70" y="140.26" />
            </Array>
          </mxGeometry>
        </mxCell>
        <mxCell id="j_wk7pwz5JaZ6GtCQzZr-102" value="&lt;font face=&quot;Times New Roman&quot; style=&quot;font-size: 16px;&quot;&gt;b&lt;sub&gt;3&lt;/sub&gt;-b&lt;sub&gt;4&lt;/sub&gt;-b&lt;sub&gt;8&lt;/sub&gt;&lt;/font&gt;&lt;font face=&quot;Times New Roman&quot; style=&quot;font-size: 16px;&quot;&gt;&lt;sub&gt;&lt;br&gt;&lt;/sub&gt;&lt;/font&gt;" style="text;html=1;align=center;verticalAlign=middle;whiteSpace=wrap;rounded=0;" parent="1" vertex="1">
          <mxGeometry x="-140" y="124.48" width="80" height="30" as="geometry" />
        </mxCell>
        <mxCell id="j_wk7pwz5JaZ6GtCQzZr-107" value="&lt;font face=&quot;Times New Roman&quot; style=&quot;font-size: 16px;&quot;&gt;Chain of Blocks&lt;/font&gt;" style="text;html=1;align=center;verticalAlign=middle;whiteSpace=wrap;rounded=0;" parent="1" vertex="1">
          <mxGeometry x="-170" y="89.99999999999999" width="110" height="30" as="geometry" />
        </mxCell>
        <mxCell id="j_wk7pwz5JaZ6GtCQzZr-114" style="edgeStyle=orthogonalEdgeStyle;rounded=0;orthogonalLoop=1;jettySize=auto;html=1;exitX=1;exitY=0.5;exitDx=0;exitDy=0;entryX=0;entryY=0.5;entryDx=0;entryDy=0;" parent="1" source="j_wk7pwz5JaZ6GtCQzZr-109" target="j_wk7pwz5JaZ6GtCQzZr-110" edge="1">
          <mxGeometry relative="1" as="geometry" />
        </mxCell>
        <mxCell id="j_wk7pwz5JaZ6GtCQzZr-109" value="&lt;font style=&quot;font-size: 22px;&quot; face=&quot;Times New Roman&quot;&gt;b&lt;sub&gt;3&lt;/sub&gt;&lt;/font&gt;" style="rounded=1;whiteSpace=wrap;html=1;fillColor=none;strokeColor=#82b366;" parent="1" vertex="1">
          <mxGeometry y="118.55000000000001" width="40" height="42.89" as="geometry" />
        </mxCell>
        <mxCell id="j_wk7pwz5JaZ6GtCQzZr-115" style="edgeStyle=orthogonalEdgeStyle;rounded=0;orthogonalLoop=1;jettySize=auto;html=1;exitX=1;exitY=0.5;exitDx=0;exitDy=0;entryX=0;entryY=0.5;entryDx=0;entryDy=0;" parent="1" source="j_wk7pwz5JaZ6GtCQzZr-110" target="j_wk7pwz5JaZ6GtCQzZr-112" edge="1">
          <mxGeometry relative="1" as="geometry" />
        </mxCell>
        <mxCell id="j_wk7pwz5JaZ6GtCQzZr-110" value="&lt;font style=&quot;font-size: 22px;&quot; face=&quot;Times New Roman&quot;&gt;b&lt;sub&gt;4&lt;/sub&gt;&lt;/font&gt;" style="rounded=1;whiteSpace=wrap;html=1;fillColor=none;strokeColor=#82b366;" parent="1" vertex="1">
          <mxGeometry x="60" y="124.22000000000003" width="40" height="30.52" as="geometry" />
        </mxCell>
        <mxCell id="j_wk7pwz5JaZ6GtCQzZr-111" value="&lt;font style=&quot;font-size: 22px;&quot; face=&quot;Times New Roman&quot;&gt;b&lt;sub&gt;8&lt;/sub&gt;&lt;/font&gt;" style="rounded=1;whiteSpace=wrap;html=1;fillColor=none;strokeColor=#b85450;" parent="1" vertex="1">
          <mxGeometry x="190" y="125.93" width="50" height="30" as="geometry" />
        </mxCell>
        <mxCell id="j_wk7pwz5JaZ6GtCQzZr-116" style="edgeStyle=orthogonalEdgeStyle;rounded=0;orthogonalLoop=1;jettySize=auto;html=1;exitX=1;exitY=0.5;exitDx=0;exitDy=0;entryX=0;entryY=0.5;entryDx=0;entryDy=0;" parent="1" source="j_wk7pwz5JaZ6GtCQzZr-112" target="j_wk7pwz5JaZ6GtCQzZr-111" edge="1">
          <mxGeometry relative="1" as="geometry" />
        </mxCell>
        <mxCell id="j_wk7pwz5JaZ6GtCQzZr-112" value="&lt;font face=&quot;Times New Roman&quot;&gt;Stitch 2&lt;/font&gt;" style="shape=trapezoid;perimeter=trapezoidPerimeter;whiteSpace=wrap;html=1;fixedSize=1;fillColor=none;strokeColor=#9673a6;size=5;" parent="1" vertex="1">
          <mxGeometry x="120" y="130" width="55" height="20" as="geometry" />
        </mxCell>
        <mxCell id="j_wk7pwz5JaZ6GtCQzZr-117" value="&lt;font style=&quot;font-size: 16px;&quot; face=&quot;Times New Roman&quot;&gt;R&lt;/font&gt;" style="whiteSpace=wrap;html=1;aspect=fixed;fillColor=#ffe6cc;strokeColor=#d79b00;" parent="1" vertex="1">
          <mxGeometry x="-80" y="199.32000000000002" width="30" height="30" as="geometry" />
        </mxCell>
        <mxCell id="j_wk7pwz5JaZ6GtCQzZr-124" value="&lt;font style=&quot;font-size: 22px;&quot; face=&quot;Times New Roman&quot;&gt;b&lt;sub&gt;1&lt;/sub&gt;&lt;/font&gt;" style="rounded=1;whiteSpace=wrap;html=1;fillColor=none;strokeColor=#82b366;" parent="1" vertex="1">
          <mxGeometry y="199.74" width="40" height="27.63" as="geometry" />
        </mxCell>
        <mxCell id="j_wk7pwz5JaZ6GtCQzZr-125" value="&lt;font style=&quot;font-size: 22px;&quot; face=&quot;Times New Roman&quot;&gt;b&lt;sub&gt;2&lt;/sub&gt;&lt;/font&gt;" style="rounded=1;whiteSpace=wrap;html=1;fillColor=none;strokeColor=#82b366;" parent="1" vertex="1">
          <mxGeometry x="50" y="202.11" width="40" height="25.26" as="geometry" />
        </mxCell>
        <mxCell id="j_wk7pwz5JaZ6GtCQzZr-126" value="&lt;font style=&quot;font-size: 16px;&quot; face=&quot;Times New Roman&quot;&gt;R&lt;/font&gt;" style="whiteSpace=wrap;html=1;aspect=fixed;fillColor=#d5e8d4;strokeColor=#82b366;" parent="1" vertex="1">
          <mxGeometry x="-110" y="199.32000000000002" width="30" height="30" as="geometry" />
        </mxCell>
        <mxCell id="j_wk7pwz5JaZ6GtCQzZr-129" value="" style="endArrow=none;html=1;rounded=0;" parent="1" edge="1">
          <mxGeometry width="50" height="50" relative="1" as="geometry">
            <mxPoint x="-120" y="198.98999999999998" as="sourcePoint" />
            <mxPoint x="-40" y="198.98999999999998" as="targetPoint" />
          </mxGeometry>
        </mxCell>
        <mxCell id="j_wk7pwz5JaZ6GtCQzZr-130" value="" style="endArrow=none;html=1;rounded=0;" parent="1" edge="1">
          <mxGeometry width="50" height="50" relative="1" as="geometry">
            <mxPoint x="-120" y="229.32" as="sourcePoint" />
            <mxPoint x="-40" y="229.32" as="targetPoint" />
          </mxGeometry>
        </mxCell>
        <mxCell id="j_wk7pwz5JaZ6GtCQzZr-132" value="&lt;font face=&quot;Times New Roman&quot; style=&quot;font-size: 16px;&quot;&gt;Dispatch&lt;/font&gt;" style="text;html=1;align=center;verticalAlign=middle;whiteSpace=wrap;rounded=0;" parent="1" vertex="1">
          <mxGeometry x="-145" y="152.37" width="60" height="30" as="geometry" />
        </mxCell>
        <mxCell id="j_wk7pwz5JaZ6GtCQzZr-133" value="" style="endArrow=none;html=1;rounded=0;" parent="1" edge="1">
          <mxGeometry width="50" height="50" relative="1" as="geometry">
            <mxPoint x="-50" y="125" as="sourcePoint" />
            <mxPoint x="-20" y="125" as="targetPoint" />
          </mxGeometry>
        </mxCell>
        <mxCell id="j_wk7pwz5JaZ6GtCQzZr-134" value="" style="endArrow=none;html=1;rounded=0;" parent="1" edge="1">
          <mxGeometry width="50" height="50" relative="1" as="geometry">
            <mxPoint x="-50" y="155" as="sourcePoint" />
            <mxPoint x="-20" y="155" as="targetPoint" />
          </mxGeometry>
        </mxCell>
        <mxCell id="j_wk7pwz5JaZ6GtCQzZr-135" value="" style="rounded=0;whiteSpace=wrap;html=1;fillColor=none;dashed=1;" parent="1" vertex="1">
          <mxGeometry x="-10" y="109.48" width="260" height="60" as="geometry" />
        </mxCell>
        <mxCell id="j_wk7pwz5JaZ6GtCQzZr-136" value="" style="rounded=0;whiteSpace=wrap;html=1;fillColor=none;dashed=1;" parent="1" vertex="1">
          <mxGeometry x="-10" y="190" width="110" height="50" as="geometry" />
        </mxCell>
        <mxCell id="j_wk7pwz5JaZ6GtCQzZr-137" style="edgeStyle=none;rounded=0;orthogonalLoop=1;jettySize=auto;html=1;entryX=1.006;entryY=0.912;entryDx=0;entryDy=0;entryPerimeter=0;" parent="1" source="j_wk7pwz5JaZ6GtCQzZr-1" target="j_wk7pwz5JaZ6GtCQzZr-90" edge="1">
          <mxGeometry relative="1" as="geometry" />
        </mxCell>
        <mxCell id="j_wk7pwz5JaZ6GtCQzZr-138" value="&lt;font face=&quot;Times New Roman&quot; style=&quot;font-size: 16px;&quot;&gt;&lt;font&gt;Schedule Blocks&lt;/font&gt;&lt;font&gt;&lt;br&gt;&lt;/font&gt;&lt;/font&gt;" style="text;html=1;align=center;verticalAlign=middle;whiteSpace=wrap;rounded=0;" parent="1" vertex="1">
          <mxGeometry x="-190" y="251.85" width="110" height="30" as="geometry" />
        </mxCell>
        <mxCell id="j_wk7pwz5JaZ6GtCQzZr-140" value="&lt;font style=&quot;font-size: 16px;&quot; face=&quot;Times New Roman&quot;&gt;Other Requests&lt;/font&gt;" style="text;html=1;align=center;verticalAlign=middle;whiteSpace=wrap;rounded=0;" parent="1" vertex="1">
          <mxGeometry x="-200" y="197.37" width="70" height="30" as="geometry" />
        </mxCell>
      </root>
    </mxGraphModel>
  </diagram>
</mxfile>
